# xmcd
#
# Track frame offsets: 
#        150
#        28721
#        41478
#        58545
#        76143
#        96100
#        99157
#        119297
#        134442
#        154902
#        174951
#        195715
#        216403
#        236550
#
# Disc length: 3436 seconds
#
# Revision: 0
# Processed by: cddbd v1.5.2PL0 Copyright (c) Steve Scherf et al.
# Submitted via: ExactAudioCopy v0.99pb4
#
DISCID=b40d6a0e
DTITLE=Paul Westerberg - Where Are Ya, Buck?
DYEAR=2002
DGENRE=Ambient
TTITLE0=Best Thing that Never Happened
TTITLE1=Lookin' Out Forever
TTITLE2=Lush and Green
TTITLE3=Waiting for Somebody
TTITLE4=No Place for You
TTITLE5=Only Lie Worth Telling
TTITLE6=All I Really Wanna Do
TTITLE7=Eyes Like Sparks
TTITLE8=We May Be the Ones
TTITLE9=Alex Chilton
TTITLE10=Let the Bad Times Roll
TTITLE11=I Will Dare
TTITLE12=Swingin' Party
TTITLE13=Someone Take the Wheel
EXTD=
EXTT0=
EXTT1=
EXTT2=
EXTT3=
EXTT4=
EXTT5=
EXTT6=
EXTT7=
EXTT8=
EXTT9=
EXTT10=
EXTT11=
EXTT12=
EXTT13=
PLAYORDER=
